<?xml version="1.0" ?><svg height="60.890751" id="svg8" version="1.1" viewBox="0 0 16.110678 16.110678" width="60.890751" xmlns="http://www.w3.org/2000/svg" xmlns:cc="http://creativecommons.org/ns#" xmlns:dc="http://purl.org/dc/elements/1.1/" xmlns:inkscape="http://www.inkscape.org/namespaces/inkscape" xmlns:rdf="http://www.w3.org/1999/02/22-rdf-syntax-ns#" xmlns:sodipodi="http://sodipodi.sourceforge.net/DTD/sodipodi-0.dtd" xmlns:svg="http://www.w3.org/2000/svg"><defs id="defs2"/><g id="layer1" transform="translate(-0.13426876,-334.1245)"><circle cx="8.1896076" cy="342.17984" id="circle1151" r="8.0553389" style="opacity:1;fill:#ffd42a;fill-opacity:1;stroke:none;stroke-width:0.01055691;stroke-linecap:round;stroke-linejoin:round;stroke-miterlimit:4;stroke-dasharray:none;stroke-dashoffset:0;stroke-opacity:1"/><path d="m 2.72179,336.27459 a 8.055339,8.055339 0 0 0 -2.58743894,5.90507 8.055339,8.055339 0 0 0 8.05532194,8.05532 8.055339,8.055339 0 0 0 7.004739,-4.0876 8.055339,8.055339 0 0 1 -0.460953,0.40462 8.055339,8.055339 0 0 1 -0.654741,0.46819 8.055339,8.055339 0 0 1 -0.698665,0.40101 8.055339,8.055339 0 0 1 -0.734839,0.32866 8.055339,8.055339 0 0 1 -0.763778,0.25425 8.055339,8.055339 0 0 1 -0.785998,0.17622 8.055339,8.055339 0 0 1 -0.799435,0.0971 8.055339,8.055339 0 0 1 -0.5694737,0.0202 A 8.055339,8.055339 0 0 1 8.922445,348.25733 8.055339,8.055339 0 0 1 8.126111,348.13692 8.055339,8.055339 0 0 1 7.345797,347.93745 8.055339,8.055339 0 0 1 6.589254,347.6615 8.055339,8.055339 0 0 1 5.864233,347.31113 8.055339,8.055339 0 0 1 5.17797,346.89048 8.055339,8.055339 0 0 1 4.537183,346.40318 8.055339,8.055339 0 0 1 3.948071,345.85437 8.055339,8.055339 0 0 1 3.416321,345.24924 8.055339,8.055339 0 0 1 2.948132,344.5945 8.055339,8.055339 0 0 1 2.54764,343.89583 8.055339,8.055339 0 0 1 2.218461,343.161 8.055339,8.055339 0 0 1 1.96473,342.3967 a 8.055339,8.055339 0 0 1 -0.176217,-0.78548 8.055339,8.055339 0 0 1 -0.09715,-0.79943 8.055339,8.055339 0 0 1 -0.02015,-0.56948 8.055339,8.055339 0 0 1 0.04031,-0.8046 8.055339,8.055339 0 0 1 0.11989,-0.79582 8.055339,8.055339 0 0 1 0.199471,-0.78031 8.055339,8.055339 0 0 1 0.275952,-0.75654 8.055339,8.055339 0 0 1 0.350366,-0.72503 8.055339,8.055339 0 0 1 0.0646,-0.10542 z" id="path1153" style="opacity:1;fill:#ffbc2a;fill-opacity:1;stroke:none;stroke-width:0.01055691;stroke-linecap:round;stroke-linejoin:round;stroke-miterlimit:4;stroke-dasharray:none;stroke-dashoffset:0;stroke-opacity:1"/><path d="m 11.415931,343.27102 c 0.529772,2.10623 -0.810438,4.33305 -2.3359574,2.77033 -1.525519,-1.56271 1.8182264,-5.60609 2.3359574,-2.77033 z" id="path1167" style="opacity:1;fill:#1a1a1a;fill-opacity:1;stroke:none;stroke-width:1.0583334;stroke-linecap:round;stroke-linejoin:round;stroke-miterlimit:4;stroke-dasharray:none;stroke-dashoffset:0;stroke-opacity:1"/><path d="m 3.8084836,338.21172 h 2.976562" id="path1169" style="opacity:1;fill:none;fill-opacity:1;stroke:#ffffff;stroke-width:1.0583334;stroke-linecap:round;stroke-linejoin:round;stroke-miterlimit:4;stroke-dasharray:none;stroke-dashoffset:0;stroke-opacity:1"/><path d="M 6.7850456,338.21172 H 6.0527166" id="path1171" style="opacity:1;fill:none;fill-opacity:1;stroke:#1a1a1a;stroke-width:1.0583334;stroke-linecap:round;stroke-linejoin:round;stroke-miterlimit:4;stroke-dasharray:none;stroke-dashoffset:0;stroke-opacity:1"/><path d="m 10.163209,338.21172 h 2.976562" id="path1173" style="opacity:1;fill:none;fill-opacity:1;stroke:#ffffff;stroke-width:1.0583334;stroke-linecap:round;stroke-linejoin:round;stroke-miterlimit:4;stroke-dasharray:none;stroke-dashoffset:0;stroke-opacity:1"/><path d="M 13.139771,338.21172 H 12.407442" id="path1175" style="opacity:1;fill:none;fill-opacity:1;stroke:#1a1a1a;stroke-width:1.0583334;stroke-linecap:round;stroke-linejoin:round;stroke-miterlimit:4;stroke-dasharray:none;stroke-dashoffset:0;stroke-opacity:1"/></g></svg>